<svg width="1459" height="1546" viewBox="0 0 1459 1546" fill="none" xmlns="http://www.w3.org/2000/svg">
<path d="M1150.45 455.591L735.484 1159.23H852.967C742.292 1159.23 652.44 1247.09 652.44 1355.45C652.44 1422.72 687.004 1482.13 739.733 1517.47H101.824L313.011 1159.23L727.979 455.591H698.41C751.163 420.257 785.702 360.968 785.702 293.679C785.702 185.216 695.85 97.3516 585.176 97.3516H1361.67L1150.48 455.591H1150.45Z" fill="url(#paint0_linear_106_727)"/>
<path d="M785.732 293.696C785.732 360.961 780.93 420.274 728.202 455.609H0C0 257.766 163.801 97.3691 365.868 97.3691H585.205C695.88 97.3691 785.732 185.233 785.732 293.696Z" fill="url(#paint1_linear_106_727)"/>
<path d="M1458.09 1159.23C1458.09 1357.07 1294.29 1517.47 1092.22 1517.47H734.323C680.327 1481.31 645.443 1419.91 647.133 1350.66C649.742 1243.36 742.849 1159.23 852.48 1159.23H1458.11H1458.09Z" fill="url(#paint2_linear_106_727)"/>
<g filter="url(#filter0_d_106_727)">
<path d="M493.662 333.486C493.662 333.486 508.248 144.588 768.486 164.045C768.486 164.045 922.521 166.48 965.484 288.883C965.484 288.883 984.12 313.806 982.306 432.383C982.306 432.383 976.839 443.937 988.071 443.316C988.071 443.316 1048.26 446.67 1021.82 522.657C1021.82 522.657 1000.84 555.482 972.864 542.709C972.864 542.709 922.496 701.491 767.666 715.282C767.666 715.282 616.885 742.839 526.089 612.335C526.089 612.335 496.197 564.303 495.899 543.629C495.899 543.629 418.073 561.271 439.965 462.772C439.965 462.772 452.737 426.295 486.183 448.186C486.183 448.186 490.432 341.587 493.687 333.486H493.662Z" fill="#F5CDAE"/>
<path d="M623.755 398.964C623.755 398.964 601.069 360.871 563.349 413.972C563.349 413.972 562.131 417.824 568.617 416.209C568.617 416.209 575.698 398.368 623.73 398.989L623.755 398.964Z" fill="#572E1A"/>
<path d="M838.086 398.964C838.086 398.964 860.773 360.871 898.493 413.972C898.493 413.972 899.71 417.824 893.225 416.209C893.225 416.209 886.143 398.368 838.111 398.989L838.086 398.964Z" fill="#572E1A"/>
<path d="M576.312 442.314C576.312 442.314 578.45 480.929 623.848 484.159C623.848 484.159 661.841 479.189 665.494 447.98C665.494 447.98 665.393 445.843 662.362 448.278C662.362 448.278 619.698 511.616 579.369 442.712C579.369 442.712 578.151 439.357 576.338 442.314H576.312Z" fill="#572E1A"/>
<path d="M793.492 442.314C793.492 442.314 795.629 480.929 841.027 484.159C841.027 484.159 879.02 479.189 882.673 447.98C882.673 447.98 882.574 445.843 879.542 448.278C879.542 448.278 836.878 511.616 796.549 442.712C796.549 442.712 795.331 439.357 793.517 442.314H793.492Z" fill="#572E1A"/>
<path d="M702.594 523.255C702.594 523.255 733.903 501.065 756.093 523.255" stroke="#D0987B" stroke-width="6.25575" stroke-miterlimit="10"/>
<path d="M661.441 574.738C661.441 574.738 731.563 615.266 797.237 578.391C797.237 578.391 795.622 625.827 729.351 627.839C729.351 627.839 680.922 631.07 661.465 574.738H661.441Z" fill="#EBA68D"/>
<path d="M680.42 588.754C680.42 588.754 735.534 628.064 777.304 594.842C777.304 594.842 778.447 602.346 766.495 606.198C766.495 606.198 719.358 629.48 682.06 595.041C682.06 595.041 679.824 593.227 680.445 588.754H680.42Z" fill="#C47D69"/>
<path d="M712.294 1076.78C712.294 1076.78 727.078 1060.05 728.818 1058.84L728.619 987.492C728.619 987.492 733.688 969.751 728.619 947.859L728.818 882.508C728.818 882.508 729.215 878.88 726.83 875.973L723.848 889.788L720.493 976.36L716.244 995.27L717.164 1056.38L708.641 1073.69L712.294 1076.73V1076.78Z" fill="#E2B593"/>
<path d="M798.829 756.062C798.829 756.062 796.792 752.409 770.85 750.794L768.415 723.237C768.415 723.237 888.805 699.333 920.412 776.736L926.078 780.786C926.078 780.786 1035.11 788.091 1038.37 961.558C1038.37 961.558 1124.92 1017.89 1061.48 1070.6C1061.48 1070.6 1036.85 1032.9 941.558 1066.15C941.558 1066.15 864.702 1087.62 809.067 1044.65C809.067 1044.65 778.13 1024.33 757.978 912.383C757.978 912.383 758.699 891.038 751.493 892.554C751.493 892.554 749.132 872.054 740.858 872.501C740.858 872.501 735.59 852.449 728.806 882.54L727.191 874.34C727.191 874.34 727.489 856.797 712.282 873.47C712.282 873.47 705.697 882.341 711.263 891.858C711.263 891.858 700.926 890.044 701.125 912.135C701.125 912.135 690.714 1018.19 642.657 1048.56C642.657 1048.56 526.317 1095.25 482.633 1055.61C482.633 1055.61 453.138 989.985 532.082 959.943C532.082 959.943 732.111 912.308 798.779 756.062H798.829Z" fill="#F38E25"/>
<path opacity="0.5" d="M883.156 1069.18C883.156 1069.18 978.003 1016.9 1005.36 982.826C1005.36 982.826 1007.8 982.429 1007.8 988.094C1007.8 988.094 976.785 1046.96 943.662 1067.96C943.662 1067.96 883.778 1082.25 883.156 1069.18Z" fill="#DB662B"/>
<path d="M810.595 1104.25C810.595 1104.25 778.168 1130.59 712.493 1135.86C712.493 1135.86 711.996 1140.31 721.19 1139.34C721.19 1139.34 786.889 1139.69 831.666 1121.87C831.666 1121.87 843.022 1106.29 810.595 1104.25Z" fill="#D4662C"/>
<path opacity="0.5" d="M667.68 1028.44C667.68 1028.44 612.144 1049.71 578.102 1049.12C578.102 1049.12 578.102 1052.97 584.388 1052.15L651.678 1048.3L667.68 1028.44Z" fill="#DB662B"/>
<path opacity="0.5" d="M764.43 971.299C764.43 971.299 869.216 906.246 889.889 843.007C889.889 843.007 893.542 839.652 893.244 843.007C893.244 843.007 905.469 940.387 777.401 1006.11L764.455 971.299H764.43Z" fill="#DB662B"/>
<path d="M683.831 713.318L685.744 745.1C685.744 745.1 686.564 751.983 671.556 752.803C671.556 752.803 532.927 775.489 524.826 787.267C524.826 787.267 459.972 841.188 415.592 968.238C415.592 968.238 388.234 1033.29 401.006 1093.48C401.006 1093.48 398.571 1112.34 466.681 1132.99C466.681 1132.99 585.233 1142.11 660.026 1103.81C660.026 1103.81 726.098 1086.17 732.285 1061.87L728.831 1058.84L714.146 1074.05C714.146 1074.05 705.623 1077.4 719.016 1057.94L718.42 992.59C718.42 992.59 723.29 992.59 721.451 978.004C721.451 978.004 725.104 905.645 723.887 889.841L727.241 874.336C727.241 874.336 730.894 866.136 719.339 866.732C719.339 866.732 704.853 874.038 711.338 891.854C711.338 891.854 702.02 888.624 701.2 912.13C701.2 912.13 685.396 1036.57 636.346 1051.16C636.346 1051.16 521.223 1094.94 482.733 1055.61C482.733 1055.61 450.306 994.006 532.181 959.939C532.181 959.939 608.391 942.098 702.815 876.448C702.815 876.448 781.038 812.811 798.879 756.058C798.879 756.058 802.109 753.623 770.9 750.79L769.757 722.984L769.334 715.356L683.856 713.318H683.831Z" fill="#F5CDAE"/>
<path d="M1061.6 1070.38C1061.6 1070.38 1064.43 1105.64 1052.28 1108.47C1052.28 1108.47 1033.22 1123.87 1032 1127.53C1032 1127.53 1018.21 1144.95 966.751 1145.37C966.751 1145.37 885.273 1147.8 820.419 1114.98C820.419 1114.98 747.041 1082.95 734.071 1073.23C734.071 1073.23 728.604 1066.35 728.902 1058.65L728.703 987.305C728.703 987.305 733.474 982.857 728.902 945.162V882.842C728.902 882.495 728.952 882.172 729.051 881.824C729.573 879.96 731.462 873.45 732.058 873.648C732.058 873.648 734.592 857.994 740.978 872.282C740.978 872.282 749.178 871.362 751.614 892.335C751.614 892.335 758.298 890.521 757.701 909.057C757.701 909.057 773.207 1044.34 832.495 1057.11C832.495 1057.11 883.882 1087.5 964.44 1059.24C964.44 1059.24 1028.08 1038.37 1061.62 1070.4L1061.6 1070.38Z" fill="#F5CDAE"/>
<path d="M691.879 720.387V739.843L712.131 730.127H751.043L762.796 739.843L764.436 720.387H691.879Z" fill="#E3B493"/>
<path d="M1136.5 1290.7C1136.5 1290.7 1097.59 1268.01 1048.96 1259.09L1007.22 1247.33C925.042 1224.8 939.13 1206.61 939.13 1206.61C964.675 1200.22 952.499 1175.3 952.499 1175.3C936.695 1164.66 966.687 1145.61 966.687 1145.61C878.724 1146.92 802.216 1107.14 802.216 1107.14C773.516 1096.16 734.032 1073.45 734.032 1073.45C734.032 1073.45 731.249 1069.74 730.304 1066.69C730.304 1066.69 725.384 1076.43 705.555 1086.49C705.555 1086.49 679.688 1099.76 660.083 1103.86C660.083 1103.86 654.02 1107.98 629.619 1116.33L633.073 1320.64L633.122 1323.97C633.122 1323.97 674.669 1374.43 692.908 1412.13C692.908 1412.13 591.054 1387.18 477.348 1324.59C477.348 1324.59 459.432 1311.82 424.793 1309.38C424.793 1309.38 390.751 1309.98 373.73 1296.61C373.73 1296.61 361.579 1270.07 441.019 1269.65L602.758 1270.05C602.758 1270.05 618.959 1271.26 624.649 1295.59L626.687 1320.84L633.172 1323.97L629.668 1116.33C629.668 1116.33 544.041 1147.52 458.91 1130.55C458.91 1130.55 458.09 1138.23 464.153 1139.49C464.153 1139.49 463.134 1144.39 467.185 1145.01C467.185 1145.01 464.948 1152.71 471.235 1153.53C471.235 1153.53 472.254 1158.6 469.62 1160.61C469.62 1160.61 452.201 1194.46 492.928 1208.45C492.928 1208.45 504.482 1213.32 494.742 1217.57C494.742 1217.57 483.684 1243.11 397.709 1250.39C397.709 1250.39 284.375 1271.66 300.775 1372C300.775 1372 308.08 1446.17 432.099 1494.82C432.099 1494.82 523.019 1537.99 719.843 1483.89C719.843 1483.89 732.143 1484.19 738.231 1490.58C738.231 1490.58 890.949 1554.21 1053.88 1469.9C1053.88 1469.9 1217.63 1400.18 1136.58 1290.74L1136.5 1290.7ZM906.281 1320.69C906.281 1320.69 784.673 1329.61 769.267 1321.51C769.267 1321.51 770.882 1287.71 787.903 1269.35C808.179 1267.66 889.856 1272.26 889.856 1272.26C1008.41 1258.27 1024.64 1289.08 1024.64 1289.08C1024.64 1289.08 957.344 1318.25 906.281 1320.69Z" fill="#F38E25"/>
<path opacity="0.5" d="M1025.04 1287.64C1026.46 1287.54 1031.43 1287.14 1035.3 1286.02C1038.56 1285.08 1039.11 1280.68 1036.22 1278.92C1029.71 1274.94 1013.69 1266.91 979.12 1257.6C978.822 1257.52 978.524 1257.4 978.251 1257.25C973.778 1254.79 933.25 1232.67 928.902 1239.23C928.902 1239.23 927.535 1239.23 926.889 1250.49C926.815 1251.76 926.144 1252.93 925.05 1253.6L906.439 1265.32C903.308 1267.29 904.376 1272.08 908.029 1272.56L1024.27 1287.61C1024.52 1287.64 1024.77 1287.66 1025.04 1287.61V1287.64Z" fill="#DB662B"/>
<path opacity="0.5" d="M775.356 1292.83C775.356 1292.83 712.539 1306.49 622.141 1305.67V1322.3H779.009L775.356 1292.83Z" fill="#DB662B"/>
<path opacity="0.5" d="M686.21 1412.08C686.21 1412.08 699.901 1414.22 714.189 1473.8C714.189 1473.8 707.207 1489.46 632.413 1495.1C632.413 1495.1 598.271 1500.27 496.94 1500.27C496.94 1500.27 493.088 1498.23 503.226 1494.18C503.226 1494.18 607.192 1458.3 612.062 1420.6C612.062 1420.6 616.013 1384.42 551.258 1366.81C551.258 1366.81 438.67 1317.06 397.695 1315.42L345.762 1302.35C345.762 1302.35 343.625 1299.32 359.752 1300.21L495.026 1312.36L611.764 1357.66L686.235 1412.08H686.21Z" fill="#DB662B"/>
<path d="M695.791 1407.34C687.854 1394.4 643.948 1323.69 629.053 1319.88C629.053 1319.88 630.284 1264.39 597.505 1268.88C597.505 1268.88 429.167 1266.71 411.409 1270.25C411.409 1270.25 374.11 1270.52 372.728 1292.1C371.347 1313.67 380.439 1307.78 425.023 1308.63C426.254 1308.63 427.484 1308.66 428.765 1308.68C476.665 1308.78 426.254 1308.68 426.254 1308.68C426.254 1308.68 455.767 1310.82 488.972 1329.45C488.972 1329.45 606.991 1392.92 692.843 1413.04C695.563 1413.04 696.544 1408.54 695.816 1407.36L695.791 1407.34Z" fill="#F5CDAE"/>
<path d="M782.184 1327.12C770.407 1326.28 762.093 1315.25 764.71 1303.82C768.457 1287.52 773.358 1269.82 785.264 1268.78L883.436 1270.33C884.514 1270.33 885.591 1270.28 886.669 1270.1C900.499 1268.02 1001.14 1254.11 1024.9 1287.8C1024.9 1287.8 1040.11 1304.99 888.003 1325.87C887.465 1325.95 886.926 1326 886.361 1326.02C878.509 1326.43 815.849 1329.56 782.159 1327.14L782.184 1327.12Z" fill="#F5CDAE"/>
<path opacity="0.5" d="M1072.88 1385.94C1072.88 1385.94 1047.34 1426.07 957.361 1441.87C957.361 1441.87 951.273 1446.54 966.082 1446.12C966.082 1446.12 1031.86 1449.15 1078.67 1391.1C1078.67 1391.1 1082.03 1383.8 1072.91 1385.94H1072.88Z" fill="#DB662B"/>
<path opacity="0.5" d="M755.773 1344.6C755.773 1344.6 767.029 1364.98 766.706 1370.74C766.706 1370.74 777.341 1384.11 798.934 1394.15C798.934 1394.15 836.629 1417.26 866.124 1414.2C866.124 1414.2 872.212 1413.9 866.124 1412.07C866.124 1412.07 793.468 1385.92 758.208 1344.58C758.208 1344.58 755.773 1339.11 755.773 1344.58V1344.6Z" fill="#DB662B"/>
<path opacity="0.5" d="M942.742 1486.47C942.742 1486.47 864.917 1525.38 746.167 1437.84C746.167 1437.84 728.748 1426.49 714.137 1392.84C714.137 1392.84 714.137 1387.38 720.821 1392.84C720.821 1392.84 824.787 1487.49 933.002 1484.46C933.002 1484.46 946.942 1484.73 942.717 1486.5L942.742 1486.47Z" fill="#DB662B"/>
<path opacity="0.5" d="M893.539 1227.87C893.539 1227.87 740.92 1289.89 591.954 1250.97C591.954 1250.97 538.455 1235.47 508.363 1218.45C508.363 1218.45 509.581 1213.88 525.683 1221.8C525.683 1221.8 644.881 1255.1 755.804 1246.13C755.804 1246.13 866.181 1237.93 893.539 1223.02C893.539 1223.02 897.49 1223.62 893.539 1227.89V1227.87Z" fill="#DB662B"/>
<path opacity="0.5" d="M581.205 1174.36C581.205 1174.36 642.407 1205.17 787.522 1179.63C787.522 1179.63 802.306 1178.41 811.028 1174.36C811.028 1174.36 829.068 1177.71 760.362 1202.64C760.362 1202.64 667.951 1227.56 582.522 1181.96C582.522 1181.96 573.204 1178.61 581.205 1174.36Z" fill="#DB662B"/>
<path opacity="0.5" d="M490.066 517.816C491.656 513.368 501.919 481.886 478.686 471.648C478.586 471.598 478.487 471.573 478.387 471.549C477.145 471.201 468.796 468.915 472.449 473.512C472.449 473.512 483.332 480.494 484.152 487.973C484.301 489.315 483.109 490.409 481.767 490.284C477.866 489.912 469.74 490.235 465.416 498.261C464.472 500 466.187 501.963 468.026 501.317C468.448 501.168 468.771 500.895 469.02 500.522C470.361 498.484 475.604 491.725 482.562 497.118C490.663 503.404 478.984 523.059 478.984 523.059C478.984 523.059 478.512 528.277 489.42 518.711C489.693 518.462 489.917 518.164 490.041 517.816H490.066Z" fill="#B9825F"/>
<path opacity="0.5" d="M982.901 517.816C981.311 513.368 971.048 481.886 994.278 471.648C994.378 471.598 994.478 471.573 994.578 471.549C995.818 471.201 1004.17 468.915 1000.52 473.512C1000.52 473.512 989.635 480.494 988.815 487.973C988.666 489.315 989.858 490.409 991.2 490.284C995.098 489.912 1003.23 490.235 1007.55 498.261C1008.5 500 1006.78 501.963 1004.94 501.317C1004.52 501.168 1004.2 500.895 1003.95 500.522C1002.61 498.484 997.358 491.725 990.405 497.118C982.305 503.404 993.988 523.059 993.988 523.059C993.988 523.059 994.458 528.277 983.547 518.711C983.274 518.462 983.05 518.164 982.926 517.816H982.901Z" fill="#B9825F"/>
</g>
<defs>
<filter id="filter0_d_106_727" x="201.787" y="6.86646e-05" width="1054.68" height="1545.69" filterUnits="userSpaceOnUse" color-interpolation-filters="sRGB">
<feFlood flood-opacity="0" result="BackgroundImageFix"/>
<feColorMatrix in="SourceAlpha" type="matrix" values="0 0 0 0 0 0 0 0 0 0 0 0 0 0 0 0 0 0 127 0" result="hardAlpha"/>
<feOffset dy="-65.273"/>
<feGaussianBlur stdDeviation="48.6828"/>
<feColorMatrix type="matrix" values="0 0 0 0 0.137255 0 0 0 0 0.121569 0 0 0 0 0.12549 0 0 0 0.1 0"/>
<feBlend mode="normal" in2="BackgroundImageFix" result="effect1_dropShadow_106_727"/>
<feBlend mode="normal" in="SourceGraphic" in2="effect1_dropShadow_106_727" result="shape"/>
</filter>
<linearGradient id="paint0_linear_106_727" x1="934.643" y1="268.085" x2="166.38" y2="1790.48" gradientUnits="userSpaceOnUse">
<stop stop-color="#FBAA19"/>
<stop offset="0.82" stop-color="#DA6F27"/>
</linearGradient>
<linearGradient id="paint1_linear_106_727" x1="0" y1="276.476" x2="785.732" y2="276.476" gradientUnits="userSpaceOnUse">
<stop stop-color="#F9A051"/>
<stop offset="1" stop-color="#BF5527"/>
</linearGradient>
<linearGradient id="paint2_linear_106_727" x1="647.059" y1="1338.36" x2="1458.09" y2="1338.36" gradientUnits="userSpaceOnUse">
<stop stop-color="#BF5527"/>
<stop offset="1" stop-color="#F9A051"/>
</linearGradient>
</defs>
</svg>
